<?xml version="1.0" standalone="no"?>
<!DOCTYPE svg PUBLIC "-//W3C//DTD SVG 20010904//EN" "http://www.w3.org/TR/2001/REC-SVG-20010904/DTD/svg10.dtd">
<svg class="logo-svg" version="1.0" xmlns="http://www.w3.org/2000/svg"
    width="1024.000000pt" height="1024.000000pt" viewBox="100 0 824 1024"
    preserveAspectRatio="xMidYMid meet">

    <g transform="translate(0.000000,1024.000000) scale(0.100000,-0.100000)"
        fill="#000000" stroke="none">
        <path
            d="M6465 7740 c-251 -66 -491 -188 -686 -346 l-78 -64 -44 19 c-345 148
-790 153 -1156 12 l-54 -20 -86 63 c-171 127 -380 236 -575 301 -126 42 -206
54 -241 35 -55 -29 -133 -236 -161 -422 -13 -89 -15 -156 -11 -318 6 -218 16
-283 68 -461 l31 -106 -55 -79 c-30 -43 -80 -121 -112 -173 -106 -175 -315
-613 -315 -659 0 -41 200 -382 286 -489 19 -23 34 -43 34 -45 0 -2 -46 -3
-103 -4 -177 -1 -306 -60 -431 -195 -75 -81 -136 -192 -167 -305 -33 -114 -33
-325 -1 -437 89 -314 341 -544 706 -646 60 -17 113 -31 118 -31 5 0 -9 27 -32
59 -74 110 -141 282 -171 441 -7 36 -13 139 -13 230 0 177 12 259 60 407 28
86 122 283 154 323 l20 25 30 -34 29 -34 -25 -41 c-64 -103 -119 -255 -151
-412 -12 -64 -17 -136 -17 -259 0 -153 3 -181 27 -276 56 -218 137 -376 261
-509 28 -30 48 -64 59 -100 37 -125 163 -262 300 -330 126 -61 190 -75 347
-74 146 1 241 20 348 69 75 34 179 120 227 188 l40 56 116 1 117 0 46 -57 c96
-118 220 -199 366 -239 95 -27 307 -24 415 5 133 35 218 83 310 175 85 84 130
158 142 232 5 31 23 57 83 121 125 134 209 309 257 535 25 116 24 381 0 497
-26 119 -63 233 -110 334 l-40 88 116 117 c63 64 132 137 153 162 62 75 173
249 225 353 l49 97 -31 75 c-88 212 -276 566 -391 738 l-59 89 30 116 c56 218
65 289 65 522 0 243 -14 335 -79 509 -43 114 -68 157 -105 176 -36 19 -49 18
-135 -5z m12 -260 c16 -6 36 -23 45 -38 30 -50 51 -197 50 -347 0 -151 -9
-229 -42 -372 l-22 -92 -72 87 c-135 161 -289 300 -455 412 l-65 43 55 50 c58
54 202 153 284 195 28 14 82 36 120 48 39 13 70 23 71 24 1 0 14 -5 31 -10z
m-2612 -63 c125 -61 201 -109 295 -188 l62 -51 -53 -35 c-123 -80 -379 -324
-474 -450 -21 -29 -42 -53 -46 -53 -10 0 -47 160 -60 262 -16 115 -6 406 16
478 9 30 24 66 32 79 24 37 90 25 228 -42z m1512 -151 c3 -2 -13 -30 -35 -63
-50 -74 -86 -165 -108 -272 -26 -130 -16 -339 24 -493 80 -308 266 -559 548
-740 144 -92 366 -180 551 -217 171 -35 452 -26 567 18 16 7 31 9 33 7 9 -9
-99 -190 -168 -282 -274 -365 -756 -617 -1359 -711 -178 -27 -559 -24 -740 6
-327 55 -587 143 -833 283 -264 150 -481 373 -631 649 l-36 65 93 -25 c83 -22
111 -25 282 -25 167 0 202 2 285 23 293 73 523 192 710 367 228 216 327 434
380 842 33 253 83 372 214 509 l71 76 74 -7 c41 -3 76 -8 78 -10z m-825 -689
c204 -120 202 -390 -3 -502 -72 -39 -170 -42 -241 -7 -99 49 -158 133 -166
233 -13 179 123 316 305 305 44 -3 75 -11 105 -29z m1274 18 c64 -19 122 -68
159 -136 27 -48 30 -63 30 -139 0 -96 -12 -127 -74 -189 -140 -140 -362 -110
-456 60 -26 47 -30 64 -29 134 0 86 16 130 70 194 63 75 193 108 300 76z
m-1581 -2315 c286 -98 505 -134 815 -134 406 0 740 72 1066 228 74 36 134 60
134 55 0 -13 -97 -185 -141 -251 -63 -93 -133 -172 -219 -247 l-80 -71 -93 0
c-193 0 -348 -62 -478 -190 -108 -107 -142 -179 -147 -317 l-4 -103 -57 0 -56
0 3 74 c7 138 -40 248 -154 356 -55 52 -97 80 -166 114 -111 53 -168 66 -293
66 l-95 0 -81 72 c-120 105 -233 265 -293 414 -46 115 -52 112 91 40 70 -36
182 -83 248 -106z m220 -575 c153 -32 299 -136 353 -252 30 -65 35 -162 12
-218 l-12 -30 -20 45 c-25 58 -46 80 -74 80 -37 0 -38 -35 -4 -129 l31 -84
-33 -34 c-37 -39 -96 -78 -105 -70 -3 3 -24 48 -47 99 -34 76 -46 94 -66 96
-14 3 -29 -3 -36 -13 -14 -18 -6 -51 35 -153 11 -29 21 -57 21 -63 0 -16 -60
-36 -131 -44 l-65 -7 -54 117 c-58 126 -79 148 -112 119 -24 -22 -20 -53 22
-153 18 -45 25 -71 17 -71 -32 0 -173 56 -224 89 -128 82 -189 185 -181 304 5
84 38 149 117 228 70 70 153 117 251 143 72 19 217 19 305 1z m1430 0 c156
-33 305 -135 370 -255 27 -49 30 -64 30 -140 0 -70 -4 -93 -24 -129 -50 -95
-183 -189 -319 -227 -34 -9 -64 -15 -67 -13 -2 3 9 39 25 80 33 84 37 121 14
143 -33 33 -53 12 -105 -109 -23 -55 -48 -106 -55 -114 -10 -11 -24 -11 -78
-2 -89 16 -116 27 -116 48 0 10 14 49 30 88 34 78 37 107 15 125 -26 21 -43 4
-91 -92 -25 -51 -48 -95 -50 -97 -6 -7 -104 61 -124 86 -21 27 -23 19 36 161
16 39 16 44 2 59 -29 29 -64 9 -94 -53 l-28 -57 -14 39 c-19 56 -11 148 18
209 14 28 51 76 84 108 132 129 340 184 541 142z" />
        <path
            d="M4952 5970 c-149 -32 -171 -146 -49 -256 29 -26 67 -54 85 -62 31
-15 32 -18 32 -76 0 -164 -168 -281 -335 -235 -53 15 -110 75 -120 126 -8 47
-30 73 -61 73 -28 0 -44 -27 -44 -75 0 -77 65 -166 154 -213 45 -24 62 -27
151 -27 89 0 106 3 155 27 58 29 99 62 140 115 l25 33 42 -54 c108 -140 339
-169 485 -61 87 64 137 195 92 239 -35 35 -72 11 -92 -60 -23 -78 -109 -134
-209 -134 -98 0 -211 75 -249 165 -15 36 -20 145 -6 145 4 0 38 25 75 55 66
55 107 114 107 156 0 36 -33 78 -76 99 -48 24 -230 35 -302 20z" />
        <path
            d="M4337 6556 c-80 -29 -146 -109 -162 -198 -25 -135 101 -278 245 -278
176 0 302 190 231 346 -22 48 -45 69 -36 32 8 -32 -9 -73 -41 -103 -21 -19
-38 -25 -74 -25 -42 0 -52 4 -79 35 -24 27 -31 45 -31 76 0 47 21 91 52 113
22 16 21 16 -22 16 -25 -1 -62 -7 -83 -14z" />
        <path
            d="M5711 6561 c46 -15 69 -31 84 -61 47 -91 -30 -200 -120 -170 -81 27
-111 119 -59 187 31 41 20 42 -33 4 -26 -19 -51 -50 -68 -85 -24 -48 -27 -65
-23 -125 5 -88 42 -152 112 -196 44 -27 58 -30 131 -30 73 0 87 3 131 30 87
54 135 152 119 244 -10 63 -63 141 -119 175 -39 24 -61 31 -115 33 -46 2 -58
0 -40 -6z" />
        <path
            d="M6744 4845 l-27 -36 51 -107 c86 -184 117 -304 128 -500 20 -358 -89
-669 -315 -905 -45 -46 -81 -90 -81 -97 0 -23 -67 -133 -116 -190 -61 -71
-156 -154 -219 -191 -27 -16 -92 -43 -142 -59 -282 -91 -592 -17 -804 193
l-68 67 -113 -1 -113 0 -31 -39 c-81 -101 -229 -194 -371 -231 -59 -16 -109
-21 -208 -22 -155 0 -219 14 -352 79 -147 73 -291 220 -359 368 -23 50 -29 56
-55 56 -17 0 -76 9 -132 21 -344 71 -600 226 -795 483 -30 39 -29 15 4 -82 63
-187 177 -343 382 -518 333 -285 909 -518 1477 -598 416 -58 850 -45 1287 39
420 82 846 257 1140 470 175 127 354 334 427 496 177 392 87 779 -262 1120
-86 85 -267 219 -294 219 -7 0 -24 -16 -39 -35z" />
    </g>
</svg>